<svg width="227" height="205" viewBox="0 0 227 205" fill="none" xmlns="http://www.w3.org/2000/svg">
<path d="M124.45 47.7778L112.235 23.3598C108.719 16.3322 106.961 12.8183 104.339 10.2511C102.02 7.98083 99.2247 6.25427 96.156 5.19633C92.6858 4 88.7553 4 80.8941 4H39.04C26.7749 4 20.6423 4 15.9576 6.38575C11.8369 8.48431 8.48658 11.8329 6.38696 15.9515C4 20.6338 4 26.7633 4 39.0222V47.7778M4 47.7778H170.44C188.838 47.7778 198.037 47.7778 205.064 51.3564C211.245 54.5042 216.27 59.5271 219.42 65.7051C223 72.7285 223 81.9227 223 100.311V148.467C223 166.855 223 176.049 219.42 183.073C216.27 189.251 211.245 194.274 205.064 197.421C198.037 201 188.838 201 170.44 201H56.56C38.1623 201 28.9634 201 21.9364 197.421C15.7553 194.274 10.7299 189.251 7.58044 183.073C4 176.049 4 166.855 4 148.467V47.7778ZM151.825 162.694L135.4 146.278M146.35 118.917C146.35 140.072 129.191 157.222 108.025 157.222C86.8587 157.222 69.7 140.072 69.7 118.917C69.7 97.7611 86.8587 80.6111 108.025 80.6111C129.191 80.6111 146.35 97.7611 146.35 118.917Z" stroke="#988AFF" stroke-opacity="0.2" stroke-width="8" stroke-linecap="round" stroke-linejoin="round"/>
</svg>
