<svg width="30" height="30" viewBox="0 0 30 30" fill="none" xmlns="http://www.w3.org/2000/svg">
<g id="Cancel">
<path id="Subtract" fill-rule="evenodd" clip-rule="evenodd" d="M26.25 15C26.25 21.2132 21.2132 26.25 15 26.25C8.7868 26.25 3.75 21.2132 3.75 15C3.75 8.7868 8.7868 3.75 15 3.75C21.2132 3.75 26.25 8.7868 26.25 15ZM20.2489 18.8347C21.0356 17.7597 21.5 16.4341 21.5 15C21.5 11.4101 18.5899 8.5 15 8.5C13.5659 8.5 12.2403 8.96443 11.1653 9.7511L20.2489 18.8347ZM9.7511 11.1653L18.8347 20.2489C17.7597 21.0356 16.4341 21.5 15 21.5C11.4101 21.5 8.5 18.5899 8.5 15C8.5 13.5659 8.96443 12.2403 9.7511 11.1653ZM15 6.5C10.3056 6.5 6.5 10.3056 6.5 15C6.5 19.6944 10.3056 23.5 15 23.5C19.6944 23.5 23.5 19.6944 23.5 15C23.5 10.3056 19.6944 6.5 15 6.5Z" fill="white"/>
</g>
</svg>
